<?xml version="1.0" encoding="UTF-8"?>
<svg version="1.1" xmlns="http://www.w3.org/2000/svg" width="401" height="227">
<path d="M0 0 C132.33 0 264.66 0 401 0 C401 74.91 401 149.82 401 227 C268.67 227 136.34 227 0 227 C0 152.09 0 77.18 0 0 Z " fill="#FDFEFD" transform="translate(0,0)"/>
<path d="M0 0 C4.95 0 9.9 0 15 0 C14.98839844 1.09650879 14.97679687 2.19301758 14.96484375 3.32275391 C14.51119592 32.09244293 14.51119592 32.09244293 22.75732422 59.31445312 C24.72132496 63.55885552 26.41373705 67.907606 28.13696289 72.25415039 C29.02785732 74.49822138 29.9314857 76.73728979 30.84936523 78.97045898 C31.26001221 79.97407471 31.67065918 80.97769043 32.09375 82.01171875 C32.46177734 82.90334717 32.82980469 83.79497559 33.20898438 84.71362305 C34 87 34 87 34 90 C22.78 90 11.56 90 0 90 C0 60.3 0 30.6 0 0 Z " fill="#2690A2" transform="translate(253,71)"/>
<path d="M0 0 C2 1 2 1 3.33203125 4.69140625 C3.83329429 6.31272123 4.32621188 7.93663077 4.8125 9.5625 C5.35024773 11.31641014 5.88800833 13.07031633 6.42578125 14.82421875 C6.69213379 15.70255371 6.95848633 16.58088867 7.23291016 17.48583984 C7.90526676 19.68950895 8.59275895 21.8870901 9.29296875 24.08203125 C12.05419867 32.75890587 14.59786277 41.48506793 17.03320312 50.25927734 C17.27490234 51.12117676 17.51660156 51.98307617 17.765625 52.87109375 C17.97993164 53.64380615 18.19423828 54.41651855 18.41503906 55.21264648 C18.85167791 57.00237471 18.85167791 57.00237471 20 58 C20.08767112 60.07262076 20.10695873 62.14820294 20.09765625 64.22265625 C20.09443359 65.48271484 20.09121094 66.74277344 20.08789062 68.04101562 C20.07953403 69.38151109 20.07106907 70.72200588 20.0625 72.0625 C20.0574866 73.40689942 20.05292342 74.7513006 20.04882812 76.09570312 C20.03699497 79.39715433 20.01905886 82.6985826 20 86 C13.73 86 7.46 86 1 86 C1.020625 84.4015625 1.04125 82.803125 1.0625 81.15625 C0.2700253 71.65771527 -4.61692295 63.77471819 -9 55.5 C-10.27188373 53.05644157 -11.53799317 50.61001339 -12.80078125 48.16174316 C-13.58332187 46.64915523 -14.37211161 45.13977923 -15.16796875 43.63415527 C-18.45832381 37.35226462 -18.45832381 37.35226462 -19 34 C-17.80004883 31.1784668 -17.80004883 31.1784668 -15.95703125 27.94921875 C-15.63216232 27.37218704 -15.3072934 26.79515533 -14.97257996 26.20063782 C-13.9306116 24.35618307 -12.87194516 22.52196096 -11.8125 20.6875 C-11.11801806 19.46482965 -10.4246464 18.24152794 -9.73242188 17.01757812 C-7.83546614 13.67037957 -5.91935732 10.33440872 -4 7 C-3.16995877 5.54852812 -2.3403805 4.09679113 -1.51171875 2.64453125 C-1.01285156 1.77183594 -0.51398438 0.89914063 0 0 Z " fill="#C82337" transform="translate(148,75)"/>
<path d="M0 0 C2.64 0 5.28 0 8 0 C8 29.7 8 59.4 8 90 C5.69 90 3.38 90 1 90 C1 84.06 1 78.12 1 72 C-8.24 72 -17.48 72 -27 72 C-27 65.4 -27 58.8 -27 52 C-19.41 52 -11.82 52 -4 52 C-4 46.39 -4 40.78 -4 35 C-11.26 35 -18.52 35 -26 35 C-26 29.06 -26 23.12 -26 17 C-17.42 17 -8.84 17 0 17 C0 11.39 0 5.78 0 0 Z " fill="#96C552" transform="translate(339,71)"/>
<path d="M0 0 C7.26 0 14.52 0 22 0 C22 23.76 22 47.52 22 72 C14.74 72 7.48 72 0 72 C0 48.24 0 24.48 0 0 Z " fill="#D7DC40" transform="translate(231,71)"/>
<path d="M0 0 C10.23 0 20.46 0 31 0 C31 29.37 31 58.74 31 89 C27.37 89 23.74 89 20 89 C20.02731201 87.93491211 20.05462402 86.86982422 20.08276367 85.77246094 C20.56163744 63.0669345 19.51611991 44.68866388 9.44238281 23.99462891 C7.61060959 20.19156014 5.98234766 16.32014646 4.36743164 12.42114258 C3.38886111 10.05930224 2.37808621 7.71360541 1.36328125 5.3671875 C0 2 0 2 0 0 Z " fill="#D5DB42" transform="translate(268,71)"/>
<path d="M0 0 C4.95 0 9.9 0 15 0 C15 29.7 15 59.4 15 90 C10.05 90 5.1 90 0 90 C0 60.3 0 30.6 0 0 Z " fill="#2590A1" transform="translate(203,71)"/>
<path d="M0 0 C0.33 0 0.66 0 1 0 C1 27.72 1 55.44 1 84 C-4.94 84 -10.88 84 -17 84 C-17.09271637 79.92820625 -17.17206951 75.85916022 -17.21972656 71.78686523 C-17.2396267 70.406855 -17.2667574 69.02692663 -17.30175781 67.6472168 C-17.52894027 58.44966802 -16.61764236 51.42886644 -13 43 C-12.13057039 40.33389048 -11.38100272 37.63770145 -10.625 34.9375 C-8.62966256 27.96848475 -6.41702741 21.09331923 -4.05517578 14.23999023 C-2.44992068 9.53640851 -1.14792857 4.83653316 0 0 Z " fill="#F7AD32" transform="translate(202,77)"/>
<path d="M0 0 C9.24 0 18.48 0 28 0 C26.63875 2.84625 25.2775 5.6925 23.875 8.625 C23.04734722 10.39092945 22.22143207 12.15767608 21.3984375 13.92578125 C20.02820768 16.85742315 18.62454498 19.75049671 17.1015625 22.60546875 C11.89104232 33.0392177 11.97816007 43.51531421 12 55 C11.53609863 54.3797998 11.07219727 53.75959961 10.59423828 53.12060547 C5.44732071 46.27433809 0.25677262 41.52813202 -7 37 C-8.80091254 35.80549052 -10.59261566 34.59698402 -12.375 33.375 C-13.18710938 32.82585937 -13.99921875 32.27671875 -14.8359375 31.7109375 C-17.88178681 29.30284725 -19.80496795 27.33271901 -20.375 23.4375 C-20 21 -20 21 -19 19.1875 C-15.80386985 17.28979772 -12.616685 17.44996249 -9 18 C-7 19.1875 -7 19.1875 -6 21 C-6 22.65 -6 24.3 -6 26 C-0.06 26 5.88 26 12 26 C10.77314601 14.34488711 8.23480503 8.23480503 0 0 Z " fill="#D7DC45" transform="translate(103,71)"/>
<path d="M0 0 C0.33 0 0.66 0 1 0 C1 24.42 1 48.84 1 74 C-1.72182737 70.37089684 -3.75436414 66.7813743 -5.7578125 62.75 C-6.1063327 62.05487305 -6.45485291 61.35974609 -6.81393433 60.64355469 C-7.54703139 59.17871719 -8.27812284 57.71287443 -9.00732422 56.24609375 C-10.12262227 54.00477831 -11.24639992 51.76786264 -12.37109375 49.53125 C-13.08384657 48.10442293 -13.7961031 46.67734782 -14.5078125 45.25 C-14.84322052 44.58323242 -15.17862854 43.91646484 -15.52420044 43.22949219 C-18.88386324 36.44196888 -18.88386324 36.44196888 -19 34 C-17.80004883 31.1784668 -17.80004883 31.1784668 -15.95703125 27.94921875 C-15.63216232 27.37218704 -15.3072934 26.79515533 -14.97257996 26.20063782 C-13.9306116 24.35618307 -12.87194516 22.52196096 -11.8125 20.6875 C-11.11801806 19.46482965 -10.4246464 18.24152794 -9.73242188 17.01757812 C-7.83546614 13.67037957 -5.91935732 10.33440872 -4 7 C-3.16995877 5.54852812 -2.3403805 4.09679113 -1.51171875 2.64453125 C-1.01285156 1.77183594 -0.51398438 0.89914063 0 0 Z " fill="#F7AC31" transform="translate(148,75)"/>
<path d="M0 0 C1.32 1.65 2.64 3.3 4 5 C8.56034442 9.52422288 13.50735576 13.42472613 18.75 17.125 C22.91769949 20.12363933 26.29127165 22.60999198 29 27 C29.61317083 30.95154536 29.59892975 32.98442348 27.5625 36.4375 C23.77270223 38.7483523 20.3201162 38.91951097 16 38 C13.4375 35.8125 13.4375 35.8125 12 33 C12 31.35 12 29.7 12 28 C8.04 28 4.08 28 0 28 C0 18.76 0 9.52 0 0 Z " fill="#E95533" transform="translate(68,105)"/>
<path d="M0 0 C3.18086186 2.65796414 4.46819633 5.82347714 6.13671875 9.56640625 C6.42102249 10.20110336 6.70532623 10.83580048 6.99824524 11.48973083 C7.59561888 12.82722307 8.18964394 14.16621532 8.78051758 15.5065918 C9.68734704 17.56215327 10.60547742 19.61237482 11.52539062 21.66210938 C16 31.7097137 16 31.7097137 16 34 C4.78 34 -6.44 34 -18 34 C-15 31 -15 31 -12.625 29.8125 C-8.81190991 27.17965208 -6.69865765 24.31714178 -5 20 C-4.58706814 16.68427985 -4.43670759 13.41620407 -4.3125 10.078125 C-3.87970179 5.81506263 -2.47768894 3.43679434 0 0 Z " fill="#E95634" transform="translate(119,127)"/>
<path d="M0 0 C2.76102499 1.38051249 2.84232165 2.76711462 3.8828125 5.64453125 C4.24189697 6.62276855 4.60098145 7.60100586 4.97094727 8.60888672 C5.35178467 9.6660791 5.73262207 10.72327148 6.125 11.8125 C9.46264621 20.9203954 12.92535484 29.9563924 16.61181641 38.92895508 C19 44.79435842 19 44.79435842 19 47 C12.73 47 6.46 47 0 47 C0 31.49 0 15.98 0 0 Z " fill="#2C7694" transform="translate(268,113)"/>
<path d="M0 0 C6.27 0 12.54 0 19 0 C19 15.18 19 30.36 19 46 C17.38459914 43.5768987 16.31436184 41.5778134 15.21240234 38.92749023 C14.87220062 38.11332138 14.5319989 37.29915253 14.18148804 36.46031189 C13.81995636 35.5852449 13.45842468 34.71017792 13.0859375 33.80859375 C12.71143463 32.9075441 12.33693176 32.00649445 11.95108032 31.07814026 C11.16110061 29.17490802 10.37275947 27.27099494 9.5859375 25.36645508 C8.37742337 22.44336152 7.16171848 19.52333249 5.9453125 16.60351562 C5.17925249 14.75538859 4.41361303 12.90708716 3.6484375 11.05859375 C3.28285736 10.18150253 2.91727722 9.30441132 2.5406189 8.40074158 C2.2067215 7.58972488 1.8728241 6.77870819 1.52880859 5.94311523 C1.23283783 5.22824448 0.93686707 4.51337372 0.63192749 3.77684021 C0 2 0 2 0 0 Z " fill="#95C44F" transform="translate(268,71)"/>
<path d="M0 0 C6.93 0 13.86 0 21 0 C18.9363478 8.48390348 16.80531247 16.92587779 14.375 25.3125 C14.06622925 26.39615845 14.06622925 26.39615845 13.7512207 27.50170898 C12.80087416 30.73227139 11.883771 33.1743435 10 36 C7.06314624 27.63933972 4.4396052 19.25857912 2.1875 10.6875 C1.96876221 9.85758545 1.75002441 9.0276709 1.5246582 8.17260742 C0 2.27092241 0 2.27092241 0 0 Z " fill="#238FA1" transform="translate(165,71)"/>
<path d="M0 0 C9.24 0 18.48 0 28 0 C26.63875 2.84625 25.2775 5.6925 23.875 8.625 C20.04617344 16.67005663 16.42202116 24.77372952 13 33 C12.67 33 12.34 33 12 33 C11.98582031 31.88882813 11.97164062 30.77765625 11.95703125 29.6328125 C11.70737 20.18605562 11.39669835 11.43470327 4.3359375 4.32421875 C2.94228521 3.15183353 1.47731094 2.06503812 0 1 C0 0.67 0 0.34 0 0 Z " fill="#228EA0" transform="translate(103,71)"/>
<path d="M0 0 C3.63 0 7.26 0 11 0 C14 3 14 3 14.4375 5.9375 C13.91278296 9.61051925 12.82790258 10.70232915 10 13 C10.66 14.11375 11.32 15.2275 12 16.375 C14 19.75 14 19.75 14 22 C13.01 22 12.02 22 11 22 C10.68546875 21.36191406 10.3709375 20.72382813 10.046875 20.06640625 C9.61890625 19.24011719 9.1909375 18.41382813 8.75 17.5625 C8.33234375 16.73878906 7.9146875 15.91507813 7.484375 15.06640625 C6.01047374 12.54473322 6.01047374 12.54473322 2 12 C2 15.3 2 18.6 2 22 C1.34 22 0.68 22 0 22 C0 14.74 0 7.48 0 0 Z " fill="#BEBEBE" transform="translate(154,178)"/>
<path d="M0 0 C4 1 4 1 6.140625 4.16015625 C6.85703244 5.45366968 7.55974235 6.75484523 8.25 8.0625 C8.61351562 8.72572266 8.97703125 9.38894531 9.3515625 10.07226562 C10.24616748 11.70845105 11.12466067 13.35342724 12 15 C12.33 10.05 12.66 5.1 13 0 C13.99 0 14.98 0 16 0 C16 7.26 16 14.52 16 22 C14.68 22 13.36 22 12 22 C8.04 15.07 8.04 15.07 4 8 C3.67 12.62 3.34 17.24 3 22 C2.01 22 1.02 22 0 22 C0 14.74 0 7.48 0 0 Z " fill="#C6C7C7" transform="translate(191,178)"/>
<path d="M0 0 C1.32 0 2.64 0 4 0 C5.00981089 2.72588833 6.00803308 5.45512264 7 8.1875 C7.28617188 8.95642578 7.57234375 9.72535156 7.8671875 10.51757812 C9.28784938 14.45822357 10.40963365 17.74151681 10 22 C9.34 22 8.68 22 8 22 C7.34 19.69 6.68 17.38 6 15 C3.03 15 0.06 15 -3 15 C-3.33 17.31 -3.66 19.62 -4 22 C-4.99 22 -5.98 22 -7 22 C-3.25 3.25 -3.25 3.25 0 0 Z " fill="#BEBFBF" transform="translate(177,178)"/>
<path d="M0 0 C1.32 0 2.64 0 4 0 C5.00990692 2.91333079 6.00615952 5.83115319 7 8.75 C7.28617188 9.575 7.57234375 10.4 7.8671875 11.25 C8.13789063 12.04921875 8.40859375 12.8484375 8.6875 13.671875 C9.06455078 14.77160645 9.06455078 14.77160645 9.44921875 15.89355469 C10 18 10 18 10 22 C9.01 21.67 8.02 21.34 7 21 C6.67 19.02 6.34 17.04 6 15 C3.03 15 0.06 15 -3 15 C-3.33 17.31 -3.66 19.62 -4 22 C-4.99 22 -5.98 22 -7 22 C-3.25 3.25 -3.25 3.25 0 0 Z " fill="#BFC0C0" transform="translate(235,178)"/>
<path d="M0 0 C0.99 0.66 1.98 1.32 3 2 C2.61402985 4.79828356 2.19863427 5.8205884 0.0625 7.75 C-2 9 -2 9 -4 9 C-4 9.66 -4 10.32 -4 11 C1.61 11 7.22 11 13 11 C13 11.33 13 11.66 13 12 C3.43 12.33 -6.14 12.66 -16 13 C-16.33 12.34 -16.66 11.68 -17 11 C-14.36 11 -11.72 11 -9 11 C-9.0928125 9.1128125 -9.0928125 9.1128125 -9.1875 7.1875 C-9.16684038 3.29660512 -9.16684038 3.29660512 -7.875 1 C-5.13335219 -0.46221217 -3.05603838 -0.31833733 0 0 Z " fill="#E7EFF0" transform="translate(118,59)"/>
<path d="M0 0 C0.66 0.33 1.32 0.66 2 1 C1.67 1.99 1.34 2.98 1 4 C0.34 3.67 -0.32 3.34 -1 3 C-2.99960012 2.960008 -5.00047242 2.95653201 -7 3 C-7 4.32 -7 5.64 -7 7 C-6.44570312 7.26554688 -5.89140625 7.53109375 -5.3203125 7.8046875 C-4.59585938 8.15789062 -3.87140625 8.51109375 -3.125 8.875 C-2.04605469 9.39707031 -2.04605469 9.39707031 -0.9453125 9.9296875 C1 11 1 11 3 13 C3.375 15.9375 3.375 15.9375 3 19 C1.2151665 21.23104188 -0.11532418 21.88785799 -2.94140625 22.24609375 C-6.80637334 22.3670964 -8.73991362 22.17339092 -12 20 C-12 19.34 -12 18.68 -12 18 C-8.7 18.33 -5.4 18.66 -2 19 C-1.67 17.35 -1.34 15.7 -1 14 C-1.63808594 13.70867187 -2.27617187 13.41734375 -2.93359375 13.1171875 C-9.69482289 9.76294278 -9.69482289 9.76294278 -11.25 5.875 C-11 3 -11 3 -10.0625 1.125 C-6.70815593 -0.70464222 -3.78816828 -0.24051862 0 0 Z " fill="#BEBFBF" transform="translate(223,178)"/>
<path d="M0 0 C1.051875 -0.00386719 1.051875 -0.00386719 2.125 -0.0078125 C4 0.125 4 0.125 6 1.125 C5.67 2.115 5.34 3.105 5 4.125 C2.36 3.795 -0.28 3.465 -3 3.125 C-5.52625679 5.65125679 -6.27493616 7.63963135 -6.4375 11.125 C-6.30277577 14.00809861 -6.00267216 15.12043506 -4.5 17.6875 C-0.72858765 19.8560621 1.79214512 18.96657098 6 18.125 C5 21.125 5 21.125 3 22.125 C-0.3125 22.5 -0.3125 22.5 -4 22.125 C-7.15954305 19.58362841 -8.71540886 17.97877341 -10 14.125 C-10.53756448 8.42681648 -9.60129241 5.57365533 -6 1.125 C-3.75487738 0.00243869 -2.48543351 -0.00913762 0 0 Z " fill="#C0C1C1" transform="translate(257,177.875)"/>
<path d="M0 0 C0.33 0 0.66 0 1 0 C1 4.29 1 8.58 1 13 C10.9 12.505 10.9 12.505 21 12 C21 12.66 21 13.32 21 14 C9.78 14 -1.44 14 -13 14 C-10 11 -10 11 -7.625 9.8125 C-4.3614006 7.55906232 -2.95425941 5.0494113 -1.015625 1.64453125 C-0.68046875 1.10183594 -0.3453125 0.55914062 0 0 Z " fill="#F6AE55" transform="translate(114,147)"/>
<path d="M0 0 C4.95 0 9.9 0 15 0 C15 0.66 15 1.32 15 2 C13.02 2 11.04 2 9 2 C9 8.6 9 15.2 9 22 C8.01 22 7.02 22 6 22 C6 15.4 6 8.8 6 2 C4.02 2 2.04 2 0 2 C0 1.34 0 0.68 0 0 Z " fill="#BDBEBE" transform="translate(134,178)"/>
<path d="M0 0 C1.32 0 2.64 0 4 0 C4.33 1.32 4.66 2.64 5 4 C4.34 4 3.68 4 3 4 C3.66 6.97 4.32 9.94 5 13 C-1.75 13.125 -1.75 13.125 -4 12 C-3.52494322 10.18641846 -3.04483958 8.37415821 -2.5625 6.5625 C-2.29566406 5.55316406 -2.02882812 4.54382813 -1.75390625 3.50390625 C-1 1 -1 1 0 0 Z " fill="#C5C6C6" transform="translate(177,178)"/>
<path d="M0 0 C1.32 0 2.64 0 4 0 C4.79953138 3.28696233 5.09658936 4.71023192 4 8 C4.39397335 10.63804589 4.39397335 10.63804589 5 13 C-1.75 13.125 -1.75 13.125 -4 12 C-3.52494322 10.18641846 -3.04483958 8.37415821 -2.5625 6.5625 C-2.29566406 5.55316406 -2.02882812 4.54382813 -1.75390625 3.50390625 C-1 1 -1 1 0 0 Z " fill="#C3C4C4" transform="translate(235,178)"/>
<path d="M0 0 C5.28 0 10.56 0 16 0 C16 0.66 16 1.32 16 2 C13.69 2 11.38 2 9 2 C9 8.6 9 15.2 9 22 C8.34 22 7.68 22 7 22 C7 15.4 7 8.8 7 2 C4.69 2 2.38 2 0 2 C0 1.34 0 0.68 0 0 Z " fill="#BABBBB" transform="translate(265,178)"/>
<path d="M0 0 C3.375 -0.125 3.375 -0.125 7 0 C9 2 9 2 9.1875 4.5625 C9 7 9 7 8 8 C5.32941149 8.14115161 2.67567762 8.04247107 0 8 C0 5.36 0 2.72 0 0 Z " fill="#FAFBFB" transform="translate(156,180)"/>
<path d="M0 0 C1.32 0.33 2.64 0.66 4 1 C4.33 1.99 4.66 2.98 5 4 C4.01 4 3.02 4 2 4 C2 9.61 2 15.22 2 21 C1.34 21 0.68 21 0 21 C0 14.07 0 7.14 0 0 Z " fill="#BABBBB" transform="translate(191,178)"/>
<path d="M0 0 C1.69270833 1.49739583 3.38541667 2.99479167 5.078125 4.4921875 C6.97418746 5.9797487 8.81290005 7.00322436 11 8 C11 8.33 11 8.66 11 9 C7.37 9 3.74 9 0 9 C0 6.03 0 3.06 0 0 Z " fill="#F9D743" transform="translate(68,152)"/>
<path d="M0 0 C3.3 0 6.6 0 10 0 C9.2575 0.53625 8.515 1.0725 7.75 1.625 C4.82649095 4.14984872 3.06298806 6.75816162 1 10 C0.67 10 0.34 10 0 10 C0 6.7 0 3.4 0 0 Z " fill="#97C654" transform="translate(68,71)"/>
<path d="M0 0 C2.0625 0.1875 2.0625 0.1875 4 1 C5 4 5 4 4.0625 6.1875 C3.5365625 7.0846875 3.5365625 7.0846875 3 8 C0.69 7.34 -1.62 6.68 -4 6 C-2.84826645 3.53199953 -1.95216435 1.95216435 0 0 Z " fill="#F5F6ED" transform="translate(92,83)"/>
<path d="M0 0 C2.95183101 2.95183101 3.08663988 5.95511947 4 10 C2.02 10 0.04 10 -2 10 C-1.125 2.25 -1.125 2.25 0 0 Z " fill="#F5F6F6" transform="translate(236,181)"/>
<path d="M0 0 C0.66 0 1.32 0 2 0 C2.66 2.97 3.32 5.94 4 9 C2.02 9 0.04 9 -2 9 C-1.51421457 5.87709365 -1.0013988 3.00419641 0 0 Z " fill="#F5F6F6" transform="translate(178,182)"/>
</svg>
