<svg width="400" height="300" viewBox="0 0 400 300" xmlns="http://www.w3.org/2000/svg">
  <rect width="400" height="300" fill="#f4f4f4"/>
  <g transform="translate(200, 150)">
    <path d="M-20,80 L-20,-80 M0,80 L0,-80 M20,80 L20,-80" stroke="#d4af37" stroke-width="8" stroke-linecap="round"/>
    <path d="M-40,60 L-30,40 M-40,40 L-30,20 M-40,20 L-30,0 M-40,0 L-30,-20 M-40,-20 L-30,-40 M-40,-40 L-30,-60" stroke="#d4af37" stroke-width="3" stroke-linecap="round"/>
    <path d="M40,60 L30,40 M40,40 L30,20 M40,20 L30,0 M40,0 L30,-20 M40,-20 L30,-40 M40,-40 L30,-60" stroke="#d4af37" stroke-width="3" stroke-linecap="round"/>
  </g>
  <text x="200" y="250" font-family="Arial" font-size="24" text-anchor="middle" fill="#333">Premium Wheat</text>
</svg>